<mxfile host="app.diagrams.net" modified="2024-06-04T06:58:00.744Z" agent="Mozilla/5.0 (Windows NT 10.0; Win64; x64) AppleWebKit/537.36 (KHTML, like Gecko) Chrome/125.0.0.0 Safari/537.36" etag="x0tUmUe0eQG78rygFfvk" version="24.4.13" type="github">
  <diagram name="BILLPMNT" id="fFTDqG8mTUoPpfk7rOg2">
    <mxGraphModel dx="1222" dy="636" grid="1" gridSize="10" guides="1" tooltips="1" connect="1" arrows="1" fold="1" page="1" pageScale="1" pageWidth="850" pageHeight="1100" math="0" shadow="0">
      <root>
        <mxCell id="0" />
        <mxCell id="1" parent="0" />
        <mxCell id="cChgybbp4XVxhi1M-lru-1" value="" style="sketch=0;points=[[0,0,0],[0.25,0,0],[0.5,0,0],[0.75,0,0],[1,0,0],[0,1,0],[0.25,1,0],[0.5,1,0],[0.75,1,0],[1,1,0],[0,0.25,0],[0,0.5,0],[0,0.75,0],[1,0.25,0],[1,0.5,0],[1,0.75,0]];outlineConnect=0;fontColor=#232F3E;fillColor=#8C4FFF;strokeColor=#ffffff;dashed=0;verticalLabelPosition=bottom;verticalAlign=top;align=center;html=1;fontSize=12;fontStyle=0;aspect=fixed;shape=mxgraph.aws4.resourceIcon;resIcon=mxgraph.aws4.cloudfront;" parent="1" vertex="1">
          <mxGeometry x="327" y="20" width="78" height="78" as="geometry" />
        </mxCell>
        <mxCell id="cChgybbp4XVxhi1M-lru-2" value="" style="sketch=0;points=[[0,0,0],[0.25,0,0],[0.5,0,0],[0.75,0,0],[1,0,0],[0,1,0],[0.25,1,0],[0.5,1,0],[0.75,1,0],[1,1,0],[0,0.25,0],[0,0.5,0],[0,0.75,0],[1,0.25,0],[1,0.5,0],[1,0.75,0]];outlineConnect=0;fontColor=#232F3E;fillColor=#8C4FFF;strokeColor=#ffffff;dashed=0;verticalLabelPosition=bottom;verticalAlign=top;align=center;html=1;fontSize=12;fontStyle=0;aspect=fixed;shape=mxgraph.aws4.resourceIcon;resIcon=mxgraph.aws4.route_53;" parent="1" vertex="1">
          <mxGeometry x="100" y="20" width="78" height="78" as="geometry" />
        </mxCell>
        <mxCell id="cChgybbp4XVxhi1M-lru-7" value="" style="edgeStyle=orthogonalEdgeStyle;rounded=0;orthogonalLoop=1;jettySize=auto;html=1;" parent="1" source="cChgybbp4XVxhi1M-lru-3" target="cChgybbp4XVxhi1M-lru-4" edge="1">
          <mxGeometry relative="1" as="geometry" />
        </mxCell>
        <mxCell id="cChgybbp4XVxhi1M-lru-3" value="" style="sketch=0;points=[[0,0,0],[0.25,0,0],[0.5,0,0],[0.75,0,0],[1,0,0],[0,1,0],[0.25,1,0],[0.5,1,0],[0.75,1,0],[1,1,0],[0,0.25,0],[0,0.5,0],[0,0.75,0],[1,0.25,0],[1,0.5,0],[1,0.75,0]];outlineConnect=0;fontColor=#232F3E;fillColor=#E7157B;strokeColor=#ffffff;dashed=0;verticalLabelPosition=bottom;verticalAlign=top;align=center;html=1;fontSize=12;fontStyle=0;aspect=fixed;shape=mxgraph.aws4.resourceIcon;resIcon=mxgraph.aws4.sqs;" parent="1" vertex="1">
          <mxGeometry x="540" y="20" width="78" height="78" as="geometry" />
        </mxCell>
        <mxCell id="cChgybbp4XVxhi1M-lru-8" value="" style="edgeStyle=orthogonalEdgeStyle;rounded=0;orthogonalLoop=1;jettySize=auto;html=1;" parent="1" source="cChgybbp4XVxhi1M-lru-4" target="cChgybbp4XVxhi1M-lru-1" edge="1">
          <mxGeometry relative="1" as="geometry" />
        </mxCell>
        <mxCell id="cChgybbp4XVxhi1M-lru-4" value="" style="sketch=0;points=[[0,0,0],[0.25,0,0],[0.5,0,0],[0.75,0,0],[1,0,0],[0,1,0],[0.25,1,0],[0.5,1,0],[0.75,1,0],[1,1,0],[0,0.25,0],[0,0.5,0],[0,0.75,0],[1,0.25,0],[1,0.5,0],[1,0.75,0]];outlineConnect=0;fontColor=#232F3E;fillColor=#E7157B;strokeColor=#ffffff;dashed=0;verticalLabelPosition=bottom;verticalAlign=top;align=center;html=1;fontSize=12;fontStyle=0;aspect=fixed;shape=mxgraph.aws4.resourceIcon;resIcon=mxgraph.aws4.api_gateway;" parent="1" vertex="1">
          <mxGeometry x="440" y="20" width="78" height="78" as="geometry" />
        </mxCell>
        <mxCell id="cChgybbp4XVxhi1M-lru-6" value="" style="edgeStyle=orthogonalEdgeStyle;rounded=0;orthogonalLoop=1;jettySize=auto;html=1;" parent="1" source="cChgybbp4XVxhi1M-lru-5" target="cChgybbp4XVxhi1M-lru-3" edge="1">
          <mxGeometry relative="1" as="geometry" />
        </mxCell>
        <mxCell id="cChgybbp4XVxhi1M-lru-5" value="" style="outlineConnect=0;dashed=0;verticalLabelPosition=bottom;verticalAlign=top;align=center;html=1;shape=mxgraph.aws3.lambda_function;fillColor=#F58534;gradientColor=none;" parent="1" vertex="1">
          <mxGeometry x="665" y="23" width="69" height="72" as="geometry" />
        </mxCell>
        <mxCell id="cChgybbp4XVxhi1M-lru-11" value="" style="edgeStyle=orthogonalEdgeStyle;rounded=0;orthogonalLoop=1;jettySize=auto;html=1;" parent="1" source="cChgybbp4XVxhi1M-lru-10" target="cChgybbp4XVxhi1M-lru-1" edge="1">
          <mxGeometry relative="1" as="geometry" />
        </mxCell>
        <mxCell id="cChgybbp4XVxhi1M-lru-12" value="" style="edgeStyle=orthogonalEdgeStyle;rounded=0;orthogonalLoop=1;jettySize=auto;html=1;" parent="1" source="cChgybbp4XVxhi1M-lru-10" target="cChgybbp4XVxhi1M-lru-2" edge="1">
          <mxGeometry relative="1" as="geometry" />
        </mxCell>
        <mxCell id="cChgybbp4XVxhi1M-lru-10" value="" style="sketch=0;points=[[0,0,0],[0.25,0,0],[0.5,0,0],[0.75,0,0],[1,0,0],[0,1,0],[0.25,1,0],[0.5,1,0],[0.75,1,0],[1,1,0],[0,0.25,0],[0,0.5,0],[0,0.75,0],[1,0.25,0],[1,0.5,0],[1,0.75,0]];outlineConnect=0;fontColor=#232F3E;fillColor=#DD344C;strokeColor=#ffffff;dashed=0;verticalLabelPosition=bottom;verticalAlign=top;align=center;html=1;fontSize=12;fontStyle=0;aspect=fixed;shape=mxgraph.aws4.resourceIcon;resIcon=mxgraph.aws4.waf;" parent="1" vertex="1">
          <mxGeometry x="220" y="20" width="78" height="78" as="geometry" />
        </mxCell>
        <mxCell id="cChgybbp4XVxhi1M-lru-13" value="Replica DB" style="shape=cylinder3;whiteSpace=wrap;html=1;boundedLbl=1;backgroundOutline=1;size=15;" parent="1" vertex="1">
          <mxGeometry x="625" y="319" width="80" height="100" as="geometry" />
        </mxCell>
        <mxCell id="cChgybbp4XVxhi1M-lru-14" value="&lt;span style=&quot;font-weight: 700; color: rgb(31, 31, 31); font-family: &amp;quot;Google Sans&amp;quot;, &amp;quot;Helvetica Neue&amp;quot;, sans-serif; font-size: 16px; text-align: left; background-color: rgb(255, 255, 255);&quot;&gt;Biller&lt;/span&gt;&lt;span style=&quot;font-weight: 700; color: rgb(31, 31, 31); font-family: &amp;quot;Google Sans&amp;quot;, &amp;quot;Helvetica Neue&amp;quot;, sans-serif; font-size: 16px; text-align: left; background-color: rgb(255, 255, 255);&quot;&gt;DB&lt;span style=&quot;white-space: pre;&quot;&gt;&#x9;&lt;/span&gt;&lt;/span&gt;" style="shape=cylinder3;whiteSpace=wrap;html=1;boundedLbl=1;backgroundOutline=1;size=15;" parent="1" vertex="1">
          <mxGeometry x="353" y="310" width="140" height="140" as="geometry" />
        </mxCell>
        <mxCell id="cChgybbp4XVxhi1M-lru-16" value="AddUserService" style="whiteSpace=wrap;html=1;" parent="1" vertex="1">
          <mxGeometry x="605" y="200" width="120" height="60" as="geometry" />
        </mxCell>
        <mxCell id="cChgybbp4XVxhi1M-lru-17" value="UpdateeUserService" style="whiteSpace=wrap;html=1;" parent="1" vertex="1">
          <mxGeometry x="605" y="120" width="120" height="60" as="geometry" />
        </mxCell>
        <mxCell id="cChgybbp4XVxhi1M-lru-18" value="Replica DB" style="shape=cylinder3;whiteSpace=wrap;html=1;boundedLbl=1;backgroundOutline=1;size=15;" parent="1" vertex="1">
          <mxGeometry x="635" y="329" width="80" height="100" as="geometry" />
        </mxCell>
        <mxCell id="cChgybbp4XVxhi1M-lru-19" value="&lt;span style=&quot;font-weight: 700; color: rgb(31, 31, 31); font-family: &amp;quot;Google Sans&amp;quot;, &amp;quot;Helvetica Neue&amp;quot;, sans-serif; font-size: 16px; text-align: left; background-color: rgb(255, 255, 255);&quot;&gt;Biller&lt;/span&gt;&lt;span style=&quot;font-weight: 700; color: rgb(31, 31, 31); font-family: &amp;quot;Google Sans&amp;quot;, &amp;quot;Helvetica Neue&amp;quot;, sans-serif; font-size: 16px; text-align: left; background-color: rgb(255, 255, 255);&quot;&gt;ReplicaDB&lt;span style=&quot;white-space: pre;&quot;&gt;&#x9;&lt;/span&gt;&lt;/span&gt;" style="shape=cylinder3;whiteSpace=wrap;html=1;boundedLbl=1;backgroundOutline=1;size=15;" parent="1" vertex="1">
          <mxGeometry x="640" y="339" width="80" height="100" as="geometry" />
        </mxCell>
        <mxCell id="cChgybbp4XVxhi1M-lru-20" style="edgeStyle=orthogonalEdgeStyle;rounded=0;orthogonalLoop=1;jettySize=auto;html=1;exitX=0.5;exitY=0;exitDx=0;exitDy=0;exitPerimeter=0;entryX=0.359;entryY=0.015;entryDx=0;entryDy=0;entryPerimeter=0;" parent="1" source="cChgybbp4XVxhi1M-lru-18" target="cChgybbp4XVxhi1M-lru-18" edge="1">
          <mxGeometry relative="1" as="geometry" />
        </mxCell>
        <mxCell id="cChgybbp4XVxhi1M-lru-68" value="" style="edgeStyle=orthogonalEdgeStyle;rounded=0;orthogonalLoop=1;jettySize=auto;html=1;" parent="1" source="cChgybbp4XVxhi1M-lru-22" target="cChgybbp4XVxhi1M-lru-14" edge="1">
          <mxGeometry relative="1" as="geometry" />
        </mxCell>
        <mxCell id="cChgybbp4XVxhi1M-lru-22" value="&lt;span style=&quot;font-weight: 700; color: rgb(31, 31, 31); font-family: &amp;quot;Google Sans&amp;quot;, &amp;quot;Helvetica Neue&amp;quot;, sans-serif; font-size: 16px; text-align: left; background-color: rgb(255, 255, 255);&quot;&gt;Biller&lt;/span&gt;" style="whiteSpace=wrap;html=1;" parent="1" vertex="1">
          <mxGeometry x="174" y="350" width="120" height="60" as="geometry" />
        </mxCell>
        <mxCell id="cChgybbp4XVxhi1M-lru-27" value="" style="edgeStyle=orthogonalEdgeStyle;rounded=0;orthogonalLoop=1;jettySize=auto;html=1;" parent="1" source="cChgybbp4XVxhi1M-lru-25" target="cChgybbp4XVxhi1M-lru-22" edge="1">
          <mxGeometry relative="1" as="geometry" />
        </mxCell>
        <mxCell id="cChgybbp4XVxhi1M-lru-30" style="edgeStyle=orthogonalEdgeStyle;rounded=0;orthogonalLoop=1;jettySize=auto;html=1;" parent="1" source="cChgybbp4XVxhi1M-lru-25" target="cChgybbp4XVxhi1M-lru-17" edge="1">
          <mxGeometry relative="1" as="geometry">
            <Array as="points">
              <mxPoint x="85" y="150" />
            </Array>
          </mxGeometry>
        </mxCell>
        <mxCell id="cChgybbp4XVxhi1M-lru-31" style="edgeStyle=orthogonalEdgeStyle;rounded=0;orthogonalLoop=1;jettySize=auto;html=1;" parent="1" source="cChgybbp4XVxhi1M-lru-25" target="cChgybbp4XVxhi1M-lru-16" edge="1">
          <mxGeometry relative="1" as="geometry">
            <mxPoint x="595" y="230" as="targetPoint" />
            <Array as="points">
              <mxPoint x="80" y="230" />
            </Array>
          </mxGeometry>
        </mxCell>
        <mxCell id="cChgybbp4XVxhi1M-lru-25" value="Actor" style="shape=umlActor;verticalLabelPosition=bottom;verticalAlign=top;html=1;outlineConnect=0;" parent="1" vertex="1">
          <mxGeometry x="65" y="350" width="30" height="60" as="geometry" />
        </mxCell>
        <mxCell id="cChgybbp4XVxhi1M-lru-69" style="edgeStyle=orthogonalEdgeStyle;rounded=0;orthogonalLoop=1;jettySize=auto;html=1;entryX=-0.019;entryY=0.61;entryDx=0;entryDy=0;entryPerimeter=0;" parent="1" source="cChgybbp4XVxhi1M-lru-14" target="cChgybbp4XVxhi1M-lru-13" edge="1">
          <mxGeometry relative="1" as="geometry" />
        </mxCell>
        <mxCell id="cChgybbp4XVxhi1M-lru-70" value="Replica DB" style="shape=cylinder3;whiteSpace=wrap;html=1;boundedLbl=1;backgroundOutline=1;size=15;" parent="1" vertex="1">
          <mxGeometry x="625" y="659" width="80" height="100" as="geometry" />
        </mxCell>
        <mxCell id="cChgybbp4XVxhi1M-lru-71" value="&lt;span style=&quot;font-weight: 700; color: rgb(31, 31, 31); font-family: &amp;quot;Google Sans&amp;quot;, &amp;quot;Helvetica Neue&amp;quot;, sans-serif; font-size: 16px; text-align: left; background-color: rgb(255, 255, 255);&quot;&gt;CustomerDB&lt;span style=&quot;white-space: pre;&quot;&gt;&#x9;&lt;/span&gt;&lt;/span&gt;" style="shape=cylinder3;whiteSpace=wrap;html=1;boundedLbl=1;backgroundOutline=1;size=15;" parent="1" vertex="1">
          <mxGeometry x="353" y="650" width="140" height="140" as="geometry" />
        </mxCell>
        <mxCell id="cChgybbp4XVxhi1M-lru-72" value="AddUserService" style="whiteSpace=wrap;html=1;" parent="1" vertex="1">
          <mxGeometry x="605" y="540" width="120" height="60" as="geometry" />
        </mxCell>
        <mxCell id="cChgybbp4XVxhi1M-lru-73" value="UpdateeUserService" style="whiteSpace=wrap;html=1;" parent="1" vertex="1">
          <mxGeometry x="605" y="460" width="120" height="60" as="geometry" />
        </mxCell>
        <mxCell id="cChgybbp4XVxhi1M-lru-74" value="Replica DB" style="shape=cylinder3;whiteSpace=wrap;html=1;boundedLbl=1;backgroundOutline=1;size=15;" parent="1" vertex="1">
          <mxGeometry x="635" y="669" width="80" height="100" as="geometry" />
        </mxCell>
        <mxCell id="cChgybbp4XVxhi1M-lru-75" value="&lt;span style=&quot;font-weight: 700; color: rgb(31, 31, 31); font-family: &amp;quot;Google Sans&amp;quot;, &amp;quot;Helvetica Neue&amp;quot;, sans-serif; font-size: 16px; text-align: left; background-color: rgb(255, 255, 255);&quot;&gt;CustomerReplicaDB&lt;span style=&quot;white-space: pre;&quot;&gt;&#x9;&lt;/span&gt;&lt;/span&gt;" style="shape=cylinder3;whiteSpace=wrap;html=1;boundedLbl=1;backgroundOutline=1;size=15;" parent="1" vertex="1">
          <mxGeometry x="640" y="679" width="80" height="100" as="geometry" />
        </mxCell>
        <mxCell id="cChgybbp4XVxhi1M-lru-76" style="edgeStyle=orthogonalEdgeStyle;rounded=0;orthogonalLoop=1;jettySize=auto;html=1;exitX=0.5;exitY=0;exitDx=0;exitDy=0;exitPerimeter=0;entryX=0.359;entryY=0.015;entryDx=0;entryDy=0;entryPerimeter=0;" parent="1" source="cChgybbp4XVxhi1M-lru-74" target="cChgybbp4XVxhi1M-lru-74" edge="1">
          <mxGeometry relative="1" as="geometry" />
        </mxCell>
        <mxCell id="cChgybbp4XVxhi1M-lru-77" value="" style="edgeStyle=orthogonalEdgeStyle;rounded=0;orthogonalLoop=1;jettySize=auto;html=1;" parent="1" source="cChgybbp4XVxhi1M-lru-78" target="cChgybbp4XVxhi1M-lru-71" edge="1">
          <mxGeometry relative="1" as="geometry" />
        </mxCell>
        <mxCell id="cChgybbp4XVxhi1M-lru-78" value="&lt;span style=&quot;font-weight: 700; color: rgb(31, 31, 31); font-family: &amp;quot;Google Sans&amp;quot;, &amp;quot;Helvetica Neue&amp;quot;, sans-serif; font-size: 16px; text-align: left; background-color: rgb(255, 255, 255);&quot;&gt;Customer&lt;/span&gt;" style="whiteSpace=wrap;html=1;" parent="1" vertex="1">
          <mxGeometry x="174" y="690" width="120" height="60" as="geometry" />
        </mxCell>
        <mxCell id="cChgybbp4XVxhi1M-lru-79" value="" style="edgeStyle=orthogonalEdgeStyle;rounded=0;orthogonalLoop=1;jettySize=auto;html=1;" parent="1" source="cChgybbp4XVxhi1M-lru-82" target="cChgybbp4XVxhi1M-lru-78" edge="1">
          <mxGeometry relative="1" as="geometry" />
        </mxCell>
        <mxCell id="cChgybbp4XVxhi1M-lru-80" style="edgeStyle=orthogonalEdgeStyle;rounded=0;orthogonalLoop=1;jettySize=auto;html=1;" parent="1" source="cChgybbp4XVxhi1M-lru-82" target="cChgybbp4XVxhi1M-lru-73" edge="1">
          <mxGeometry relative="1" as="geometry">
            <Array as="points">
              <mxPoint x="85" y="490" />
            </Array>
          </mxGeometry>
        </mxCell>
        <mxCell id="cChgybbp4XVxhi1M-lru-81" style="edgeStyle=orthogonalEdgeStyle;rounded=0;orthogonalLoop=1;jettySize=auto;html=1;" parent="1" source="cChgybbp4XVxhi1M-lru-82" target="cChgybbp4XVxhi1M-lru-72" edge="1">
          <mxGeometry relative="1" as="geometry">
            <mxPoint x="595" y="570" as="targetPoint" />
            <Array as="points">
              <mxPoint x="80" y="570" />
            </Array>
          </mxGeometry>
        </mxCell>
        <mxCell id="cChgybbp4XVxhi1M-lru-82" value="Actor" style="shape=umlActor;verticalLabelPosition=bottom;verticalAlign=top;html=1;outlineConnect=0;" parent="1" vertex="1">
          <mxGeometry x="65" y="690" width="30" height="60" as="geometry" />
        </mxCell>
        <mxCell id="cChgybbp4XVxhi1M-lru-83" style="edgeStyle=orthogonalEdgeStyle;rounded=0;orthogonalLoop=1;jettySize=auto;html=1;entryX=-0.019;entryY=0.61;entryDx=0;entryDy=0;entryPerimeter=0;" parent="1" source="cChgybbp4XVxhi1M-lru-71" target="cChgybbp4XVxhi1M-lru-70" edge="1">
          <mxGeometry relative="1" as="geometry" />
        </mxCell>
        <mxCell id="cChgybbp4XVxhi1M-lru-98" value="Replica DB" style="shape=cylinder3;whiteSpace=wrap;html=1;boundedLbl=1;backgroundOutline=1;size=15;" parent="1" vertex="1">
          <mxGeometry x="655" y="999" width="80" height="100" as="geometry" />
        </mxCell>
        <mxCell id="cChgybbp4XVxhi1M-lru-99" value="&lt;span style=&quot;font-weight: 700; color: rgb(31, 31, 31); font-family: &amp;quot;Google Sans&amp;quot;, &amp;quot;Helvetica Neue&amp;quot;, sans-serif; font-size: 16px; text-align: left; background-color: rgb(255, 255, 255);&quot;&gt;Bill&lt;/span&gt;&lt;span style=&quot;font-weight: 700; color: rgb(31, 31, 31); font-family: &amp;quot;Google Sans&amp;quot;, &amp;quot;Helvetica Neue&amp;quot;, sans-serif; font-size: 16px; text-align: left; background-color: rgb(255, 255, 255);&quot;&gt;DB&lt;span style=&quot;white-space: pre;&quot;&gt;&#x9;&lt;/span&gt;&lt;/span&gt;" style="shape=cylinder3;whiteSpace=wrap;html=1;boundedLbl=1;backgroundOutline=1;size=15;" parent="1" vertex="1">
          <mxGeometry x="383" y="990" width="140" height="140" as="geometry" />
        </mxCell>
        <mxCell id="cChgybbp4XVxhi1M-lru-100" value="AddUserService" style="whiteSpace=wrap;html=1;" parent="1" vertex="1">
          <mxGeometry x="635" y="880" width="120" height="60" as="geometry" />
        </mxCell>
        <mxCell id="cChgybbp4XVxhi1M-lru-101" value="UpdateeUserService" style="whiteSpace=wrap;html=1;" parent="1" vertex="1">
          <mxGeometry x="635" y="800" width="120" height="60" as="geometry" />
        </mxCell>
        <mxCell id="cChgybbp4XVxhi1M-lru-102" value="Replica DB" style="shape=cylinder3;whiteSpace=wrap;html=1;boundedLbl=1;backgroundOutline=1;size=15;" parent="1" vertex="1">
          <mxGeometry x="665" y="1009" width="80" height="100" as="geometry" />
        </mxCell>
        <mxCell id="cChgybbp4XVxhi1M-lru-103" value="&lt;span style=&quot;font-weight: 700; color: rgb(31, 31, 31); font-family: &amp;quot;Google Sans&amp;quot;, &amp;quot;Helvetica Neue&amp;quot;, sans-serif; font-size: 16px; text-align: left; background-color: rgb(255, 255, 255);&quot;&gt;Bill&lt;span style=&quot;white-space: pre;&quot;&gt;&#x9;&lt;/span&gt;&lt;/span&gt;&lt;span style=&quot;font-weight: 700; color: rgb(31, 31, 31); font-family: &amp;quot;Google Sans&amp;quot;, &amp;quot;Helvetica Neue&amp;quot;, sans-serif; font-size: 16px; text-align: left; background-color: rgb(255, 255, 255);&quot;&gt;ReplicaDB&lt;span style=&quot;white-space: pre;&quot;&gt;&#x9;&lt;/span&gt;&lt;/span&gt;" style="shape=cylinder3;whiteSpace=wrap;html=1;boundedLbl=1;backgroundOutline=1;size=15;" parent="1" vertex="1">
          <mxGeometry x="670" y="1019" width="80" height="100" as="geometry" />
        </mxCell>
        <mxCell id="cChgybbp4XVxhi1M-lru-104" style="edgeStyle=orthogonalEdgeStyle;rounded=0;orthogonalLoop=1;jettySize=auto;html=1;exitX=0.5;exitY=0;exitDx=0;exitDy=0;exitPerimeter=0;entryX=0.359;entryY=0.015;entryDx=0;entryDy=0;entryPerimeter=0;" parent="1" source="cChgybbp4XVxhi1M-lru-102" target="cChgybbp4XVxhi1M-lru-102" edge="1">
          <mxGeometry relative="1" as="geometry" />
        </mxCell>
        <mxCell id="cChgybbp4XVxhi1M-lru-105" value="" style="edgeStyle=orthogonalEdgeStyle;rounded=0;orthogonalLoop=1;jettySize=auto;html=1;" parent="1" source="cChgybbp4XVxhi1M-lru-106" target="cChgybbp4XVxhi1M-lru-99" edge="1">
          <mxGeometry relative="1" as="geometry" />
        </mxCell>
        <mxCell id="cChgybbp4XVxhi1M-lru-106" value="&lt;span style=&quot;font-weight: 700; color: rgb(31, 31, 31); font-family: &amp;quot;Google Sans&amp;quot;, &amp;quot;Helvetica Neue&amp;quot;, sans-serif; font-size: 16px; text-align: left; background-color: rgb(255, 255, 255);&quot;&gt;Bill&lt;/span&gt;" style="whiteSpace=wrap;html=1;" parent="1" vertex="1">
          <mxGeometry x="204" y="1030" width="120" height="60" as="geometry" />
        </mxCell>
        <mxCell id="cChgybbp4XVxhi1M-lru-107" value="" style="edgeStyle=orthogonalEdgeStyle;rounded=0;orthogonalLoop=1;jettySize=auto;html=1;" parent="1" source="cChgybbp4XVxhi1M-lru-110" target="cChgybbp4XVxhi1M-lru-106" edge="1">
          <mxGeometry relative="1" as="geometry" />
        </mxCell>
        <mxCell id="cChgybbp4XVxhi1M-lru-108" style="edgeStyle=orthogonalEdgeStyle;rounded=0;orthogonalLoop=1;jettySize=auto;html=1;" parent="1" source="cChgybbp4XVxhi1M-lru-110" target="cChgybbp4XVxhi1M-lru-101" edge="1">
          <mxGeometry relative="1" as="geometry">
            <Array as="points">
              <mxPoint x="115" y="830" />
            </Array>
          </mxGeometry>
        </mxCell>
        <mxCell id="cChgybbp4XVxhi1M-lru-109" style="edgeStyle=orthogonalEdgeStyle;rounded=0;orthogonalLoop=1;jettySize=auto;html=1;" parent="1" source="cChgybbp4XVxhi1M-lru-110" target="cChgybbp4XVxhi1M-lru-100" edge="1">
          <mxGeometry relative="1" as="geometry">
            <mxPoint x="625" y="910" as="targetPoint" />
            <Array as="points">
              <mxPoint x="110" y="910" />
            </Array>
          </mxGeometry>
        </mxCell>
        <mxCell id="cChgybbp4XVxhi1M-lru-110" value="Actor" style="shape=umlActor;verticalLabelPosition=bottom;verticalAlign=top;html=1;outlineConnect=0;" parent="1" vertex="1">
          <mxGeometry x="95" y="1030" width="30" height="60" as="geometry" />
        </mxCell>
        <mxCell id="cChgybbp4XVxhi1M-lru-111" style="edgeStyle=orthogonalEdgeStyle;rounded=0;orthogonalLoop=1;jettySize=auto;html=1;entryX=-0.019;entryY=0.61;entryDx=0;entryDy=0;entryPerimeter=0;" parent="1" source="cChgybbp4XVxhi1M-lru-99" target="cChgybbp4XVxhi1M-lru-98" edge="1">
          <mxGeometry relative="1" as="geometry" />
        </mxCell>
        <mxCell id="cChgybbp4XVxhi1M-lru-112" value="Replica DB" style="shape=cylinder3;whiteSpace=wrap;html=1;boundedLbl=1;backgroundOutline=1;size=15;" parent="1" vertex="1">
          <mxGeometry x="653" y="1379" width="80" height="100" as="geometry" />
        </mxCell>
        <mxCell id="cChgybbp4XVxhi1M-lru-113" value="&lt;span style=&quot;font-weight: 700; color: rgb(31, 31, 31); font-family: &amp;quot;Google Sans&amp;quot;, &amp;quot;Helvetica Neue&amp;quot;, sans-serif; font-size: 16px; text-align: left; background-color: rgb(255, 255, 255);&quot;&gt;Payment Aggregator&lt;/span&gt;&lt;span style=&quot;font-weight: 700; color: rgb(31, 31, 31); font-family: &amp;quot;Google Sans&amp;quot;, &amp;quot;Helvetica Neue&amp;quot;, sans-serif; font-size: 16px; text-align: left; background-color: rgb(255, 255, 255);&quot;&gt;DB&lt;span style=&quot;white-space: pre;&quot;&gt;&#x9;&lt;/span&gt;&lt;/span&gt;" style="shape=cylinder3;whiteSpace=wrap;html=1;boundedLbl=1;backgroundOutline=1;size=15;" parent="1" vertex="1">
          <mxGeometry x="381" y="1370" width="140" height="140" as="geometry" />
        </mxCell>
        <mxCell id="cChgybbp4XVxhi1M-lru-114" value="AddUserService" style="whiteSpace=wrap;html=1;" parent="1" vertex="1">
          <mxGeometry x="633" y="1260" width="120" height="60" as="geometry" />
        </mxCell>
        <mxCell id="cChgybbp4XVxhi1M-lru-115" value="UpdateeUserService" style="whiteSpace=wrap;html=1;" parent="1" vertex="1">
          <mxGeometry x="633" y="1180" width="120" height="60" as="geometry" />
        </mxCell>
        <mxCell id="cChgybbp4XVxhi1M-lru-116" value="Replica DB" style="shape=cylinder3;whiteSpace=wrap;html=1;boundedLbl=1;backgroundOutline=1;size=15;" parent="1" vertex="1">
          <mxGeometry x="663" y="1389" width="80" height="100" as="geometry" />
        </mxCell>
        <mxCell id="cChgybbp4XVxhi1M-lru-117" value="&lt;span style=&quot;font-weight: 700; color: rgb(31, 31, 31); font-family: &amp;quot;Google Sans&amp;quot;, &amp;quot;Helvetica Neue&amp;quot;, sans-serif; font-size: 16px; text-align: left; background-color: rgb(255, 255, 255);&quot;&gt;Payment Aggregator&lt;/span&gt;&lt;span style=&quot;font-weight: 700; color: rgb(31, 31, 31); font-family: &amp;quot;Google Sans&amp;quot;, &amp;quot;Helvetica Neue&amp;quot;, sans-serif; font-size: 16px; text-align: left; background-color: rgb(255, 255, 255);&quot;&gt;DB&lt;span style=&quot;white-space: pre;&quot;&gt;&#x9;&lt;/span&gt;&lt;/span&gt;" style="shape=cylinder3;whiteSpace=wrap;html=1;boundedLbl=1;backgroundOutline=1;size=15;" parent="1" vertex="1">
          <mxGeometry x="668" y="1399" width="80" height="100" as="geometry" />
        </mxCell>
        <mxCell id="cChgybbp4XVxhi1M-lru-118" style="edgeStyle=orthogonalEdgeStyle;rounded=0;orthogonalLoop=1;jettySize=auto;html=1;exitX=0.5;exitY=0;exitDx=0;exitDy=0;exitPerimeter=0;entryX=0.359;entryY=0.015;entryDx=0;entryDy=0;entryPerimeter=0;" parent="1" source="cChgybbp4XVxhi1M-lru-116" target="cChgybbp4XVxhi1M-lru-116" edge="1">
          <mxGeometry relative="1" as="geometry" />
        </mxCell>
        <mxCell id="cChgybbp4XVxhi1M-lru-119" value="" style="edgeStyle=orthogonalEdgeStyle;rounded=0;orthogonalLoop=1;jettySize=auto;html=1;" parent="1" source="cChgybbp4XVxhi1M-lru-120" target="cChgybbp4XVxhi1M-lru-113" edge="1">
          <mxGeometry relative="1" as="geometry" />
        </mxCell>
        <mxCell id="cChgybbp4XVxhi1M-lru-120" value="&lt;span style=&quot;font-weight: 700; color: rgb(31, 31, 31); font-family: &amp;quot;Google Sans&amp;quot;, &amp;quot;Helvetica Neue&amp;quot;, sans-serif; font-size: 16px; text-align: left; background-color: rgb(255, 255, 255);&quot;&gt;Payment Aggregator&lt;/span&gt;" style="whiteSpace=wrap;html=1;" parent="1" vertex="1">
          <mxGeometry x="202" y="1410" width="120" height="60" as="geometry" />
        </mxCell>
        <mxCell id="cChgybbp4XVxhi1M-lru-121" value="" style="edgeStyle=orthogonalEdgeStyle;rounded=0;orthogonalLoop=1;jettySize=auto;html=1;" parent="1" source="cChgybbp4XVxhi1M-lru-124" target="cChgybbp4XVxhi1M-lru-120" edge="1">
          <mxGeometry relative="1" as="geometry" />
        </mxCell>
        <mxCell id="cChgybbp4XVxhi1M-lru-122" style="edgeStyle=orthogonalEdgeStyle;rounded=0;orthogonalLoop=1;jettySize=auto;html=1;" parent="1" source="cChgybbp4XVxhi1M-lru-124" target="cChgybbp4XVxhi1M-lru-115" edge="1">
          <mxGeometry relative="1" as="geometry">
            <Array as="points">
              <mxPoint x="113" y="1210" />
            </Array>
          </mxGeometry>
        </mxCell>
        <mxCell id="cChgybbp4XVxhi1M-lru-123" style="edgeStyle=orthogonalEdgeStyle;rounded=0;orthogonalLoop=1;jettySize=auto;html=1;" parent="1" source="cChgybbp4XVxhi1M-lru-124" target="cChgybbp4XVxhi1M-lru-114" edge="1">
          <mxGeometry relative="1" as="geometry">
            <mxPoint x="623" y="1290" as="targetPoint" />
            <Array as="points">
              <mxPoint x="108" y="1290" />
            </Array>
          </mxGeometry>
        </mxCell>
        <mxCell id="cChgybbp4XVxhi1M-lru-124" value="Actor" style="shape=umlActor;verticalLabelPosition=bottom;verticalAlign=top;html=1;outlineConnect=0;" parent="1" vertex="1">
          <mxGeometry x="93" y="1410" width="30" height="60" as="geometry" />
        </mxCell>
        <mxCell id="cChgybbp4XVxhi1M-lru-125" style="edgeStyle=orthogonalEdgeStyle;rounded=0;orthogonalLoop=1;jettySize=auto;html=1;entryX=-0.019;entryY=0.61;entryDx=0;entryDy=0;entryPerimeter=0;" parent="1" source="cChgybbp4XVxhi1M-lru-113" target="cChgybbp4XVxhi1M-lru-112" edge="1">
          <mxGeometry relative="1" as="geometry" />
        </mxCell>
        <mxCell id="cChgybbp4XVxhi1M-lru-126" value="Replica DB" style="shape=cylinder3;whiteSpace=wrap;html=1;boundedLbl=1;backgroundOutline=1;size=15;" parent="1" vertex="1">
          <mxGeometry x="653" y="1739" width="80" height="100" as="geometry" />
        </mxCell>
        <mxCell id="cChgybbp4XVxhi1M-lru-127" value="&lt;span style=&quot;font-weight: 700; color: rgb(31, 31, 31); font-family: &amp;quot;Google Sans&amp;quot;, &amp;quot;Helvetica Neue&amp;quot;, sans-serif; font-size: 16px; text-align: left; background-color: rgb(255, 255, 255);&quot;&gt;Payment&lt;/span&gt;&lt;span style=&quot;font-weight: 700; color: rgb(31, 31, 31); font-family: &amp;quot;Google Sans&amp;quot;, &amp;quot;Helvetica Neue&amp;quot;, sans-serif; font-size: 16px; text-align: left; background-color: rgb(255, 255, 255);&quot;&gt;DB&lt;span style=&quot;white-space: pre;&quot;&gt;&#x9;&lt;/span&gt;&lt;/span&gt;" style="shape=cylinder3;whiteSpace=wrap;html=1;boundedLbl=1;backgroundOutline=1;size=15;" parent="1" vertex="1">
          <mxGeometry x="381" y="1730" width="140" height="140" as="geometry" />
        </mxCell>
        <mxCell id="cChgybbp4XVxhi1M-lru-128" value="AddUserService" style="whiteSpace=wrap;html=1;" parent="1" vertex="1">
          <mxGeometry x="633" y="1620" width="120" height="60" as="geometry" />
        </mxCell>
        <mxCell id="cChgybbp4XVxhi1M-lru-129" value="UpdateeUserService" style="whiteSpace=wrap;html=1;" parent="1" vertex="1">
          <mxGeometry x="633" y="1540" width="120" height="60" as="geometry" />
        </mxCell>
        <mxCell id="cChgybbp4XVxhi1M-lru-130" value="Replica DB" style="shape=cylinder3;whiteSpace=wrap;html=1;boundedLbl=1;backgroundOutline=1;size=15;" parent="1" vertex="1">
          <mxGeometry x="663" y="1749" width="80" height="100" as="geometry" />
        </mxCell>
        <mxCell id="cChgybbp4XVxhi1M-lru-131" value="&lt;span style=&quot;font-weight: 700; color: rgb(31, 31, 31); font-family: &amp;quot;Google Sans&amp;quot;, &amp;quot;Helvetica Neue&amp;quot;, sans-serif; font-size: 16px; text-align: left; background-color: rgb(255, 255, 255);&quot;&gt;Payment&lt;/span&gt;&lt;span style=&quot;font-weight: 700; color: rgb(31, 31, 31); font-family: &amp;quot;Google Sans&amp;quot;, &amp;quot;Helvetica Neue&amp;quot;, sans-serif; font-size: 16px; text-align: left; background-color: rgb(255, 255, 255);&quot;&gt;DB&lt;span style=&quot;white-space: pre;&quot;&gt;&#x9;&lt;/span&gt;&lt;/span&gt;" style="shape=cylinder3;whiteSpace=wrap;html=1;boundedLbl=1;backgroundOutline=1;size=15;" parent="1" vertex="1">
          <mxGeometry x="668" y="1759" width="80" height="100" as="geometry" />
        </mxCell>
        <mxCell id="cChgybbp4XVxhi1M-lru-132" style="edgeStyle=orthogonalEdgeStyle;rounded=0;orthogonalLoop=1;jettySize=auto;html=1;exitX=0.5;exitY=0;exitDx=0;exitDy=0;exitPerimeter=0;entryX=0.359;entryY=0.015;entryDx=0;entryDy=0;entryPerimeter=0;" parent="1" source="cChgybbp4XVxhi1M-lru-130" target="cChgybbp4XVxhi1M-lru-130" edge="1">
          <mxGeometry relative="1" as="geometry" />
        </mxCell>
        <mxCell id="cChgybbp4XVxhi1M-lru-133" value="" style="edgeStyle=orthogonalEdgeStyle;rounded=0;orthogonalLoop=1;jettySize=auto;html=1;" parent="1" source="cChgybbp4XVxhi1M-lru-134" target="cChgybbp4XVxhi1M-lru-127" edge="1">
          <mxGeometry relative="1" as="geometry" />
        </mxCell>
        <mxCell id="cChgybbp4XVxhi1M-lru-134" value="&lt;span style=&quot;font-weight: 700; color: rgb(31, 31, 31); font-family: &amp;quot;Google Sans&amp;quot;, &amp;quot;Helvetica Neue&amp;quot;, sans-serif; font-size: 16px; text-align: left; background-color: rgb(255, 255, 255);&quot;&gt;Payment&lt;/span&gt;" style="whiteSpace=wrap;html=1;" parent="1" vertex="1">
          <mxGeometry x="202" y="1770" width="120" height="60" as="geometry" />
        </mxCell>
        <mxCell id="cChgybbp4XVxhi1M-lru-135" value="" style="edgeStyle=orthogonalEdgeStyle;rounded=0;orthogonalLoop=1;jettySize=auto;html=1;" parent="1" source="cChgybbp4XVxhi1M-lru-138" target="cChgybbp4XVxhi1M-lru-134" edge="1">
          <mxGeometry relative="1" as="geometry" />
        </mxCell>
        <mxCell id="cChgybbp4XVxhi1M-lru-136" style="edgeStyle=orthogonalEdgeStyle;rounded=0;orthogonalLoop=1;jettySize=auto;html=1;" parent="1" source="cChgybbp4XVxhi1M-lru-138" target="cChgybbp4XVxhi1M-lru-129" edge="1">
          <mxGeometry relative="1" as="geometry">
            <Array as="points">
              <mxPoint x="113" y="1570" />
            </Array>
          </mxGeometry>
        </mxCell>
        <mxCell id="cChgybbp4XVxhi1M-lru-137" style="edgeStyle=orthogonalEdgeStyle;rounded=0;orthogonalLoop=1;jettySize=auto;html=1;" parent="1" source="cChgybbp4XVxhi1M-lru-138" target="cChgybbp4XVxhi1M-lru-128" edge="1">
          <mxGeometry relative="1" as="geometry">
            <mxPoint x="623" y="1650" as="targetPoint" />
            <Array as="points">
              <mxPoint x="108" y="1650" />
            </Array>
          </mxGeometry>
        </mxCell>
        <mxCell id="cChgybbp4XVxhi1M-lru-138" value="Actor" style="shape=umlActor;verticalLabelPosition=bottom;verticalAlign=top;html=1;outlineConnect=0;" parent="1" vertex="1">
          <mxGeometry x="93" y="1770" width="30" height="60" as="geometry" />
        </mxCell>
        <mxCell id="cChgybbp4XVxhi1M-lru-139" style="edgeStyle=orthogonalEdgeStyle;rounded=0;orthogonalLoop=1;jettySize=auto;html=1;entryX=-0.019;entryY=0.61;entryDx=0;entryDy=0;entryPerimeter=0;" parent="1" source="cChgybbp4XVxhi1M-lru-127" target="cChgybbp4XVxhi1M-lru-126" edge="1">
          <mxGeometry relative="1" as="geometry" />
        </mxCell>
        <mxCell id="cChgybbp4XVxhi1M-lru-175" style="edgeStyle=orthogonalEdgeStyle;rounded=0;orthogonalLoop=1;jettySize=auto;html=1;" parent="1" source="cChgybbp4XVxhi1M-lru-140" target="cChgybbp4XVxhi1M-lru-149" edge="1">
          <mxGeometry relative="1" as="geometry" />
        </mxCell>
        <mxCell id="cChgybbp4XVxhi1M-lru-177" value="" style="edgeStyle=orthogonalEdgeStyle;rounded=0;orthogonalLoop=1;jettySize=auto;html=1;" parent="1" source="cChgybbp4XVxhi1M-lru-140" target="cChgybbp4XVxhi1M-lru-150" edge="1">
          <mxGeometry relative="1" as="geometry" />
        </mxCell>
        <mxCell id="cChgybbp4XVxhi1M-lru-189" value="" style="edgeStyle=orthogonalEdgeStyle;rounded=0;orthogonalLoop=1;jettySize=auto;html=1;" parent="1" source="cChgybbp4XVxhi1M-lru-140" target="cChgybbp4XVxhi1M-lru-151" edge="1">
          <mxGeometry relative="1" as="geometry" />
        </mxCell>
        <mxCell id="cChgybbp4XVxhi1M-lru-140" value="&lt;span style=&quot;font-weight: 700; color: rgb(31, 31, 31); font-family: &amp;quot;Google Sans&amp;quot;, &amp;quot;Helvetica Neue&amp;quot;, sans-serif; font-size: 16px; text-align: left; background-color: rgb(255, 255, 255);&quot;&gt;Customer&lt;/span&gt;" style="whiteSpace=wrap;html=1;align=center;" parent="1" vertex="1">
          <mxGeometry x="580" y="1970" width="100" height="40" as="geometry" />
        </mxCell>
        <mxCell id="cChgybbp4XVxhi1M-lru-191" value="" style="edgeStyle=orthogonalEdgeStyle;rounded=0;orthogonalLoop=1;jettySize=auto;html=1;" parent="1" source="cChgybbp4XVxhi1M-lru-141" target="cChgybbp4XVxhi1M-lru-158" edge="1">
          <mxGeometry relative="1" as="geometry" />
        </mxCell>
        <mxCell id="cChgybbp4XVxhi1M-lru-194" style="edgeStyle=orthogonalEdgeStyle;rounded=0;orthogonalLoop=1;jettySize=auto;html=1;" parent="1" source="cChgybbp4XVxhi1M-lru-141" target="cChgybbp4XVxhi1M-lru-162" edge="1">
          <mxGeometry relative="1" as="geometry" />
        </mxCell>
        <mxCell id="cChgybbp4XVxhi1M-lru-195" style="edgeStyle=orthogonalEdgeStyle;rounded=0;orthogonalLoop=1;jettySize=auto;html=1;entryX=0.5;entryY=0;entryDx=0;entryDy=0;" parent="1" source="cChgybbp4XVxhi1M-lru-141" target="cChgybbp4XVxhi1M-lru-163" edge="1">
          <mxGeometry relative="1" as="geometry" />
        </mxCell>
        <mxCell id="cChgybbp4XVxhi1M-lru-196" style="edgeStyle=orthogonalEdgeStyle;rounded=0;orthogonalLoop=1;jettySize=auto;html=1;entryX=0.5;entryY=0;entryDx=0;entryDy=0;" parent="1" source="cChgybbp4XVxhi1M-lru-141" target="cChgybbp4XVxhi1M-lru-160" edge="1">
          <mxGeometry relative="1" as="geometry" />
        </mxCell>
        <mxCell id="cChgybbp4XVxhi1M-lru-197" style="edgeStyle=orthogonalEdgeStyle;rounded=0;orthogonalLoop=1;jettySize=auto;html=1;entryX=0.5;entryY=0;entryDx=0;entryDy=0;" parent="1" source="cChgybbp4XVxhi1M-lru-141" target="cChgybbp4XVxhi1M-lru-161" edge="1">
          <mxGeometry relative="1" as="geometry" />
        </mxCell>
        <mxCell id="cChgybbp4XVxhi1M-lru-198" style="edgeStyle=orthogonalEdgeStyle;rounded=0;orthogonalLoop=1;jettySize=auto;html=1;entryX=0;entryY=0;entryDx=0;entryDy=0;" parent="1" source="cChgybbp4XVxhi1M-lru-141" target="cChgybbp4XVxhi1M-lru-164" edge="1">
          <mxGeometry relative="1" as="geometry" />
        </mxCell>
        <mxCell id="cChgybbp4XVxhi1M-lru-141" value="&lt;span style=&quot;font-weight: 700; color: rgb(31, 31, 31); font-family: &amp;quot;Google Sans&amp;quot;, &amp;quot;Helvetica Neue&amp;quot;, sans-serif; font-size: 16px; text-align: left; background-color: rgb(255, 255, 255);&quot;&gt;Bill&lt;/span&gt;" style="whiteSpace=wrap;html=1;align=center;" parent="1" vertex="1">
          <mxGeometry x="987" y="2010" width="100" height="40" as="geometry" />
        </mxCell>
        <mxCell id="cChgybbp4XVxhi1M-lru-165" value="" style="edgeStyle=orthogonalEdgeStyle;rounded=0;orthogonalLoop=1;jettySize=auto;html=1;" parent="1" source="cChgybbp4XVxhi1M-lru-142" target="cChgybbp4XVxhi1M-lru-145" edge="1">
          <mxGeometry relative="1" as="geometry" />
        </mxCell>
        <mxCell id="cChgybbp4XVxhi1M-lru-169" style="edgeStyle=orthogonalEdgeStyle;rounded=0;orthogonalLoop=1;jettySize=auto;html=1;" parent="1" source="cChgybbp4XVxhi1M-lru-142" edge="1">
          <mxGeometry relative="1" as="geometry">
            <mxPoint x="176" y="1940" as="targetPoint" />
            <Array as="points">
              <mxPoint x="256" y="1940" />
            </Array>
          </mxGeometry>
        </mxCell>
        <mxCell id="cChgybbp4XVxhi1M-lru-176" value="" style="edgeStyle=orthogonalEdgeStyle;rounded=0;orthogonalLoop=1;jettySize=auto;html=1;" parent="1" source="cChgybbp4XVxhi1M-lru-142" target="cChgybbp4XVxhi1M-lru-155" edge="1">
          <mxGeometry relative="1" as="geometry" />
        </mxCell>
        <mxCell id="cChgybbp4XVxhi1M-lru-142" value="&lt;span style=&quot;font-weight: 700; color: rgb(31, 31, 31); font-family: &amp;quot;Google Sans&amp;quot;, &amp;quot;Helvetica Neue&amp;quot;, sans-serif; font-size: 16px; text-align: left; background-color: rgb(255, 255, 255);&quot;&gt;Biller&lt;/span&gt;" style="whiteSpace=wrap;html=1;align=center;" parent="1" vertex="1">
          <mxGeometry x="196" y="2030" width="100" height="40" as="geometry" />
        </mxCell>
        <mxCell id="cChgybbp4XVxhi1M-lru-223" style="edgeStyle=orthogonalEdgeStyle;rounded=0;orthogonalLoop=1;jettySize=auto;html=1;entryX=1;entryY=0;entryDx=0;entryDy=0;" parent="1" source="cChgybbp4XVxhi1M-lru-143" target="cChgybbp4XVxhi1M-lru-222" edge="1">
          <mxGeometry relative="1" as="geometry" />
        </mxCell>
        <mxCell id="cChgybbp4XVxhi1M-lru-225" value="" style="edgeStyle=orthogonalEdgeStyle;rounded=0;orthogonalLoop=1;jettySize=auto;html=1;" parent="1" source="cChgybbp4XVxhi1M-lru-143" target="cChgybbp4XVxhi1M-lru-221" edge="1">
          <mxGeometry relative="1" as="geometry" />
        </mxCell>
        <mxCell id="cChgybbp4XVxhi1M-lru-226" value="" style="edgeStyle=orthogonalEdgeStyle;rounded=0;orthogonalLoop=1;jettySize=auto;html=1;" parent="1" source="cChgybbp4XVxhi1M-lru-143" target="cChgybbp4XVxhi1M-lru-219" edge="1">
          <mxGeometry relative="1" as="geometry" />
        </mxCell>
        <mxCell id="cChgybbp4XVxhi1M-lru-143" value="&#xa;&lt;strong style=&quot;font-weight: 700; color: rgb(31, 31, 31); font-family: &amp;quot;Google Sans&amp;quot;, &amp;quot;Helvetica Neue&amp;quot;, sans-serif; font-size: 16px; font-style: normal; font-variant-ligatures: normal; font-variant-caps: normal; letter-spacing: normal; orphans: 2; text-align: left; text-indent: 0px; text-transform: none; widows: 2; word-spacing: 0px; -webkit-text-stroke-width: 0px; white-space: normal; background-color: rgb(255, 255, 255); text-decoration-thickness: initial; text-decoration-style: initial; text-decoration-color: initial;&quot;&gt;Payment Aggregator&lt;/strong&gt;&#xa;&#xa;" style="whiteSpace=wrap;html=1;align=center;" parent="1" vertex="1">
          <mxGeometry x="1225" y="1230" width="100" height="40" as="geometry" />
        </mxCell>
        <mxCell id="cChgybbp4XVxhi1M-lru-174" style="edgeStyle=orthogonalEdgeStyle;rounded=0;orthogonalLoop=1;jettySize=auto;html=1;entryX=0.25;entryY=0;entryDx=0;entryDy=0;" parent="1" source="cChgybbp4XVxhi1M-lru-144" target="cChgybbp4XVxhi1M-lru-142" edge="1">
          <mxGeometry relative="1" as="geometry" />
        </mxCell>
        <mxCell id="cChgybbp4XVxhi1M-lru-144" value="&lt;span style=&quot;color: rgb(68, 71, 70); font-family: &amp;quot;Google Sans Mono&amp;quot;, monospace; font-size: 14px; text-align: left; background-color: rgb(233, 238, 246);&quot;&gt;biller_name&lt;/span&gt;" style="ellipse;whiteSpace=wrap;html=1;align=center;" parent="1" vertex="1">
          <mxGeometry x="55" y="1980" width="100" height="40" as="geometry" />
        </mxCell>
        <mxCell id="cChgybbp4XVxhi1M-lru-145" value="&lt;span style=&quot;color: rgb(68, 71, 70); font-family: &amp;quot;Google Sans Mono&amp;quot;, monospace; font-size: 14px; text-align: left; background-color: rgb(233, 238, 246);&quot;&gt;biller_address&lt;/span&gt;" style="ellipse;whiteSpace=wrap;html=1;align=center;" parent="1" vertex="1">
          <mxGeometry x="59" y="2030" width="100" height="40" as="geometry" />
        </mxCell>
        <mxCell id="cChgybbp4XVxhi1M-lru-146" value="&lt;span style=&quot;color: rgb(68, 71, 70); font-family: &amp;quot;Google Sans Mono&amp;quot;, monospace; font-size: 14px; text-align: left; background-color: rgb(233, 238, 246);&quot;&gt;biller_PhoneNo&lt;/span&gt;" style="ellipse;whiteSpace=wrap;html=1;align=center;" parent="1" vertex="1">
          <mxGeometry x="66" y="2100" width="100" height="40" as="geometry" />
        </mxCell>
        <mxCell id="cChgybbp4XVxhi1M-lru-147" value="&lt;span style=&quot;color: rgb(68, 71, 70); font-family: &amp;quot;Google Sans Mono&amp;quot;, monospace; font-size: 14px; text-align: left; background-color: rgb(233, 238, 246);&quot;&gt;biller_id&lt;/span&gt;" style="ellipse;whiteSpace=wrap;html=1;align=center;" parent="1" vertex="1">
          <mxGeometry x="68" y="1920" width="100" height="40" as="geometry" />
        </mxCell>
        <mxCell id="cChgybbp4XVxhi1M-lru-208" value="" style="edgeStyle=orthogonalEdgeStyle;rounded=0;orthogonalLoop=1;jettySize=auto;html=1;" parent="1" source="cChgybbp4XVxhi1M-lru-148" target="cChgybbp4XVxhi1M-lru-202" edge="1">
          <mxGeometry relative="1" as="geometry" />
        </mxCell>
        <mxCell id="cChgybbp4XVxhi1M-lru-209" value="" style="edgeStyle=orthogonalEdgeStyle;rounded=0;orthogonalLoop=1;jettySize=auto;html=1;" parent="1" source="cChgybbp4XVxhi1M-lru-148" target="cChgybbp4XVxhi1M-lru-205" edge="1">
          <mxGeometry relative="1" as="geometry" />
        </mxCell>
        <mxCell id="cChgybbp4XVxhi1M-lru-210" value="" style="edgeStyle=orthogonalEdgeStyle;rounded=0;orthogonalLoop=1;jettySize=auto;html=1;" parent="1" source="cChgybbp4XVxhi1M-lru-148" target="cChgybbp4XVxhi1M-lru-204" edge="1">
          <mxGeometry relative="1" as="geometry" />
        </mxCell>
        <mxCell id="cChgybbp4XVxhi1M-lru-211" value="" style="edgeStyle=orthogonalEdgeStyle;rounded=0;orthogonalLoop=1;jettySize=auto;html=1;" parent="1" source="cChgybbp4XVxhi1M-lru-148" target="cChgybbp4XVxhi1M-lru-200" edge="1">
          <mxGeometry relative="1" as="geometry" />
        </mxCell>
        <mxCell id="cChgybbp4XVxhi1M-lru-214" style="edgeStyle=orthogonalEdgeStyle;rounded=0;orthogonalLoop=1;jettySize=auto;html=1;entryX=0.5;entryY=0;entryDx=0;entryDy=0;" parent="1" source="cChgybbp4XVxhi1M-lru-148" target="cChgybbp4XVxhi1M-lru-206" edge="1">
          <mxGeometry relative="1" as="geometry" />
        </mxCell>
        <mxCell id="cChgybbp4XVxhi1M-lru-216" style="edgeStyle=orthogonalEdgeStyle;rounded=0;orthogonalLoop=1;jettySize=auto;html=1;entryX=1;entryY=1;entryDx=0;entryDy=0;" parent="1" source="cChgybbp4XVxhi1M-lru-148" target="cChgybbp4XVxhi1M-lru-207" edge="1">
          <mxGeometry relative="1" as="geometry" />
        </mxCell>
        <mxCell id="cChgybbp4XVxhi1M-lru-217" style="edgeStyle=orthogonalEdgeStyle;rounded=0;orthogonalLoop=1;jettySize=auto;html=1;entryX=0.5;entryY=1;entryDx=0;entryDy=0;" parent="1" source="cChgybbp4XVxhi1M-lru-148" target="cChgybbp4XVxhi1M-lru-203" edge="1">
          <mxGeometry relative="1" as="geometry">
            <mxPoint x="1420" y="1620" as="targetPoint" />
          </mxGeometry>
        </mxCell>
        <mxCell id="cChgybbp4XVxhi1M-lru-218" style="edgeStyle=orthogonalEdgeStyle;rounded=0;orthogonalLoop=1;jettySize=auto;html=1;entryX=0.5;entryY=1;entryDx=0;entryDy=0;" parent="1" source="cChgybbp4XVxhi1M-lru-148" target="cChgybbp4XVxhi1M-lru-201" edge="1">
          <mxGeometry relative="1" as="geometry" />
        </mxCell>
        <mxCell id="cChgybbp4XVxhi1M-lru-148" value="&lt;span style=&quot;font-weight: 700; color: rgb(31, 31, 31); font-family: &amp;quot;Google Sans&amp;quot;, &amp;quot;Helvetica Neue&amp;quot;, sans-serif; font-size: 16px; text-align: left; background-color: rgb(255, 255, 255);&quot;&gt;Payment&lt;/span&gt;" style="whiteSpace=wrap;html=1;align=center;" parent="1" vertex="1">
          <mxGeometry x="1225" y="1660" width="100" height="40" as="geometry" />
        </mxCell>
        <mxCell id="cChgybbp4XVxhi1M-lru-149" value="&#xa;&lt;span style=&quot;color: rgb(68, 71, 70); font-family: &amp;quot;Google Sans Mono&amp;quot;, monospace; font-size: 14px; font-style: normal; font-variant-ligatures: normal; font-variant-caps: normal; font-weight: 400; letter-spacing: normal; orphans: 2; text-align: left; text-indent: 0px; text-transform: none; widows: 2; word-spacing: 0px; -webkit-text-stroke-width: 0px; white-space: normal; background-color: rgb(233, 238, 246); text-decoration-thickness: initial; text-decoration-style: initial; text-decoration-color: initial; display: inline !important; float: none;&quot;&gt;customer_id&lt;/span&gt;&#xa;&#xa;" style="ellipse;whiteSpace=wrap;html=1;align=center;" parent="1" vertex="1">
          <mxGeometry x="449" y="1889" width="100" height="40" as="geometry" />
        </mxCell>
        <mxCell id="cChgybbp4XVxhi1M-lru-150" value="&lt;span style=&quot;color: rgb(68, 71, 70); font-family: &amp;quot;Google Sans Mono&amp;quot;, monospace; font-size: 14px; text-align: left; background-color: rgb(233, 238, 246);&quot;&gt;customer_Name&lt;/span&gt;" style="ellipse;whiteSpace=wrap;html=1;align=center;" parent="1" vertex="1">
          <mxGeometry x="580" y="1889" width="100" height="40" as="geometry" />
        </mxCell>
        <mxCell id="cChgybbp4XVxhi1M-lru-151" value="&lt;span style=&quot;color: rgb(68, 71, 70); font-family: &amp;quot;Google Sans Mono&amp;quot;, monospace; font-size: 14px; text-align: left; background-color: rgb(233, 238, 246);&quot;&gt;customer_address&lt;/span&gt;" style="ellipse;whiteSpace=wrap;html=1;align=center;" parent="1" vertex="1">
          <mxGeometry x="729" y="1970" width="100" height="40" as="geometry" />
        </mxCell>
        <mxCell id="cChgybbp4XVxhi1M-lru-152" value="&lt;span style=&quot;color: rgb(68, 71, 70); font-family: &amp;quot;Google Sans Mono&amp;quot;, monospace; font-size: 14px; text-align: left; background-color: rgb(233, 238, 246);&quot;&gt;customer_phone&lt;/span&gt;" style="ellipse;whiteSpace=wrap;html=1;align=center;" parent="1" vertex="1">
          <mxGeometry x="525" y="2090" width="100" height="40" as="geometry" />
        </mxCell>
        <mxCell id="cChgybbp4XVxhi1M-lru-153" value="&lt;span style=&quot;color: rgb(68, 71, 70); font-family: &amp;quot;Google Sans Mono&amp;quot;, monospace; font-size: 14px; text-align: left; background-color: rgb(233, 238, 246);&quot;&gt;customer_pincode&lt;/span&gt;" style="ellipse;whiteSpace=wrap;html=1;align=center;" parent="1" vertex="1">
          <mxGeometry x="720" y="2110" width="100" height="40" as="geometry" />
        </mxCell>
        <mxCell id="cChgybbp4XVxhi1M-lru-167" style="edgeStyle=orthogonalEdgeStyle;rounded=0;orthogonalLoop=1;jettySize=auto;html=1;" parent="1" target="cChgybbp4XVxhi1M-lru-142" edge="1">
          <mxGeometry relative="1" as="geometry">
            <mxPoint x="299" y="2130" as="sourcePoint" />
          </mxGeometry>
        </mxCell>
        <mxCell id="cChgybbp4XVxhi1M-lru-154" value="&lt;span style=&quot;color: rgb(68, 71, 70); font-family: &amp;quot;Google Sans Mono&amp;quot;, monospace; font-size: 14px; text-align: left; background-color: rgb(233, 238, 246);&quot;&gt;biller_PhoneNo&lt;/span&gt;" style="ellipse;whiteSpace=wrap;html=1;align=center;" parent="1" vertex="1">
          <mxGeometry x="283" y="2130" width="100" height="40" as="geometry" />
        </mxCell>
        <mxCell id="cChgybbp4XVxhi1M-lru-155" value="&lt;span style=&quot;color: rgb(68, 71, 70); font-family: &amp;quot;Google Sans Mono&amp;quot;, monospace; font-size: 14px; text-align: left; background-color: rgb(233, 238, 246);&quot;&gt;biller_PhoneNo&lt;/span&gt;" style="ellipse;whiteSpace=wrap;html=1;align=center;" parent="1" vertex="1">
          <mxGeometry x="339" y="2030" width="100" height="40" as="geometry" />
        </mxCell>
        <mxCell id="cChgybbp4XVxhi1M-lru-156" value="&lt;span style=&quot;color: rgb(68, 71, 70); font-family: &amp;quot;Google Sans Mono&amp;quot;, monospace; font-size: 14px; text-align: left; background-color: rgb(233, 238, 246);&quot;&gt;biller_PhoneNo&lt;/span&gt;" style="ellipse;whiteSpace=wrap;html=1;align=center;" parent="1" vertex="1">
          <mxGeometry x="1130" y="1900" width="100" height="40" as="geometry" />
        </mxCell>
        <mxCell id="cChgybbp4XVxhi1M-lru-190" style="edgeStyle=orthogonalEdgeStyle;rounded=0;orthogonalLoop=1;jettySize=auto;html=1;entryX=1;entryY=0.75;entryDx=0;entryDy=0;" parent="1" source="cChgybbp4XVxhi1M-lru-157" target="cChgybbp4XVxhi1M-lru-140" edge="1">
          <mxGeometry relative="1" as="geometry" />
        </mxCell>
        <mxCell id="cChgybbp4XVxhi1M-lru-157" value="&lt;span style=&quot;color: rgb(68, 71, 70); font-family: &amp;quot;Google Sans Mono&amp;quot;, monospace; font-size: 14px; text-align: left; background-color: rgb(233, 238, 246);&quot;&gt;customer_city&lt;/span&gt;" style="ellipse;whiteSpace=wrap;html=1;align=center;" parent="1" vertex="1">
          <mxGeometry x="735" y="2030" width="100" height="40" as="geometry" />
        </mxCell>
        <mxCell id="cChgybbp4XVxhi1M-lru-158" value="&lt;span style=&quot;color: rgb(68, 71, 70); font-family: &amp;quot;Google Sans Mono&amp;quot;, monospace; font-size: 14px; text-align: left; background-color: rgb(233, 238, 246);&quot;&gt;bill_id&lt;/span&gt;" style="ellipse;whiteSpace=wrap;html=1;align=center;" parent="1" vertex="1">
          <mxGeometry x="987" y="1929" width="100" height="40" as="geometry" />
        </mxCell>
        <mxCell id="cChgybbp4XVxhi1M-lru-159" value="&lt;span style=&quot;color: rgb(68, 71, 70); font-family: &amp;quot;Google Sans Mono&amp;quot;, monospace; font-size: 14px; text-align: left; background-color: rgb(233, 238, 246);&quot;&gt;due_date&lt;/span&gt;" style="ellipse;whiteSpace=wrap;html=1;align=center;" parent="1" vertex="1">
          <mxGeometry x="1410" y="2040" width="100" height="40" as="geometry" />
        </mxCell>
        <mxCell id="cChgybbp4XVxhi1M-lru-160" value="&lt;span style=&quot;color: rgb(68, 71, 70); font-family: &amp;quot;Google Sans Mono&amp;quot;, monospace; font-size: 14px; text-align: left; background-color: rgb(233, 238, 246);&quot;&gt;biller_id&lt;/span&gt;" style="ellipse;whiteSpace=wrap;html=1;align=center;" parent="1" vertex="1">
          <mxGeometry x="1200" y="2150" width="100" height="40" as="geometry" />
        </mxCell>
        <mxCell id="cChgybbp4XVxhi1M-lru-161" value="&lt;span style=&quot;color: rgb(68, 71, 70); font-family: &amp;quot;Google Sans Mono&amp;quot;, monospace; font-size: 14px; text-align: left; background-color: rgb(233, 238, 246);&quot;&gt;due_date&lt;/span&gt;" style="ellipse;whiteSpace=wrap;html=1;align=center;" parent="1" vertex="1">
          <mxGeometry x="1360" y="1970" width="100" height="40" as="geometry" />
        </mxCell>
        <mxCell id="cChgybbp4XVxhi1M-lru-162" value="&lt;span style=&quot;color: rgb(68, 71, 70); font-family: &amp;quot;Google Sans Mono&amp;quot;, monospace; font-size: 14px; text-align: left; background-color: rgb(233, 238, 246);&quot;&gt;bill_&lt;/span&gt;&lt;span style=&quot;color: rgb(68, 71, 70); font-family: &amp;quot;Google Sans Mono&amp;quot;, monospace; font-size: 14px; text-align: left; background-color: rgb(233, 238, 246);&quot;&gt;amount&lt;/span&gt;" style="ellipse;whiteSpace=wrap;html=1;align=center;" parent="1" vertex="1">
          <mxGeometry x="907" y="2150" width="100" height="40" as="geometry" />
        </mxCell>
        <mxCell id="cChgybbp4XVxhi1M-lru-163" value="&lt;span style=&quot;color: rgb(68, 71, 70); font-family: &amp;quot;Google Sans Mono&amp;quot;, monospace; font-size: 14px; text-align: left; background-color: rgb(233, 238, 246);&quot;&gt;bill_details&lt;/span&gt;" style="ellipse;whiteSpace=wrap;html=1;align=center;" parent="1" vertex="1">
          <mxGeometry x="1070" y="2150" width="100" height="40" as="geometry" />
        </mxCell>
        <mxCell id="cChgybbp4XVxhi1M-lru-164" value="&lt;span style=&quot;color: rgb(68, 71, 70); font-family: &amp;quot;Google Sans Mono&amp;quot;, monospace; font-size: 14px; text-align: left; background-color: rgb(233, 238, 246);&quot;&gt;status&lt;/span&gt;" style="ellipse;whiteSpace=wrap;html=1;align=center;" parent="1" vertex="1">
          <mxGeometry x="1320" y="2140" width="100" height="40" as="geometry" />
        </mxCell>
        <mxCell id="cChgybbp4XVxhi1M-lru-166" style="edgeStyle=orthogonalEdgeStyle;rounded=0;orthogonalLoop=1;jettySize=auto;html=1;entryX=0.4;entryY=1;entryDx=0;entryDy=0;entryPerimeter=0;" parent="1" source="cChgybbp4XVxhi1M-lru-146" target="cChgybbp4XVxhi1M-lru-142" edge="1">
          <mxGeometry relative="1" as="geometry" />
        </mxCell>
        <mxCell id="cChgybbp4XVxhi1M-lru-183" style="edgeStyle=orthogonalEdgeStyle;rounded=0;orthogonalLoop=1;jettySize=auto;html=1;entryX=0.435;entryY=1.025;entryDx=0;entryDy=0;entryPerimeter=0;" parent="1" source="cChgybbp4XVxhi1M-lru-152" target="cChgybbp4XVxhi1M-lru-140" edge="1">
          <mxGeometry relative="1" as="geometry" />
        </mxCell>
        <mxCell id="cChgybbp4XVxhi1M-lru-184" style="edgeStyle=orthogonalEdgeStyle;rounded=0;orthogonalLoop=1;jettySize=auto;html=1;entryX=0.898;entryY=1.025;entryDx=0;entryDy=0;entryPerimeter=0;" parent="1" source="cChgybbp4XVxhi1M-lru-153" target="cChgybbp4XVxhi1M-lru-140" edge="1">
          <mxGeometry relative="1" as="geometry" />
        </mxCell>
        <mxCell id="cChgybbp4XVxhi1M-lru-199" style="edgeStyle=orthogonalEdgeStyle;rounded=0;orthogonalLoop=1;jettySize=auto;html=1;entryX=0.435;entryY=0.994;entryDx=0;entryDy=0;entryPerimeter=0;" parent="1" source="cChgybbp4XVxhi1M-lru-141" target="cChgybbp4XVxhi1M-lru-156" edge="1">
          <mxGeometry relative="1" as="geometry" />
        </mxCell>
        <mxCell id="cChgybbp4XVxhi1M-lru-200" value="&lt;span style=&quot;color: rgb(68, 71, 70); font-family: &amp;quot;Google Sans Mono&amp;quot;, monospace; font-size: 14px; text-align: left; background-color: rgb(233, 238, 246);&quot;&gt;processed_at&lt;/span&gt;" style="ellipse;whiteSpace=wrap;html=1;align=center;" parent="1" vertex="1">
          <mxGeometry x="1225" y="1830" width="100" height="40" as="geometry" />
        </mxCell>
        <mxCell id="cChgybbp4XVxhi1M-lru-201" value="&lt;span style=&quot;color: rgb(68, 71, 70); font-family: &amp;quot;Google Sans Mono&amp;quot;, monospace; font-size: 14px; text-align: left; background-color: rgb(233, 238, 246);&quot;&gt;payment_aggregator_id&lt;/span&gt;" style="ellipse;whiteSpace=wrap;html=1;align=center;" parent="1" vertex="1">
          <mxGeometry x="1410" y="1510" width="100" height="40" as="geometry" />
        </mxCell>
        <mxCell id="cChgybbp4XVxhi1M-lru-202" value="&lt;span style=&quot;color: rgb(68, 71, 70); font-family: &amp;quot;Google Sans Mono&amp;quot;, monospace; font-size: 14px; text-align: left; background-color: rgb(233, 238, 246);&quot;&gt;payment_ref&lt;/span&gt;" style="ellipse;whiteSpace=wrap;html=1;align=center;" parent="1" vertex="1">
          <mxGeometry x="1570" y="1660" width="100" height="40" as="geometry" />
        </mxCell>
        <mxCell id="cChgybbp4XVxhi1M-lru-203" value="&lt;span style=&quot;color: rgb(68, 71, 70); font-family: &amp;quot;Google Sans Mono&amp;quot;, monospace; font-size: 14px; text-align: left; background-color: rgb(233, 238, 246);&quot;&gt;payment_method&lt;/span&gt;" style="ellipse;whiteSpace=wrap;html=1;align=center;" parent="1" vertex="1">
          <mxGeometry x="1460" y="1749" width="100" height="40" as="geometry" />
        </mxCell>
        <mxCell id="cChgybbp4XVxhi1M-lru-204" value="&lt;span style=&quot;color: rgb(68, 71, 70); font-family: &amp;quot;Google Sans Mono&amp;quot;, monospace; font-size: 14px; text-align: left; background-color: rgb(233, 238, 246);&quot;&gt;bill_id&lt;/span&gt;" style="ellipse;whiteSpace=wrap;html=1;align=center;" parent="1" vertex="1">
          <mxGeometry x="1225" y="1573" width="100" height="40" as="geometry" />
        </mxCell>
        <mxCell id="cChgybbp4XVxhi1M-lru-205" value="&lt;span style=&quot;color: rgb(68, 71, 70); font-family: &amp;quot;Google Sans Mono&amp;quot;, monospace; font-size: 14px; text-align: left; background-color: rgb(233, 238, 246);&quot;&gt;amount_paid&lt;/span&gt;" style="ellipse;whiteSpace=wrap;html=1;align=center;" parent="1" vertex="1">
          <mxGeometry x="960" y="1660" width="100" height="40" as="geometry" />
        </mxCell>
        <mxCell id="cChgybbp4XVxhi1M-lru-206" value="&lt;span style=&quot;color: rgb(68, 71, 70); font-family: &amp;quot;Google Sans Mono&amp;quot;, monospace; font-size: 14px; text-align: left; background-color: rgb(233, 238, 246);&quot;&gt;payment_status&lt;/span&gt;" style="ellipse;whiteSpace=wrap;html=1;align=center;" parent="1" vertex="1">
          <mxGeometry x="1140" y="1759" width="100" height="40" as="geometry" />
        </mxCell>
        <mxCell id="cChgybbp4XVxhi1M-lru-207" value="&lt;span style=&quot;color: rgb(68, 71, 70); font-family: &amp;quot;Google Sans Mono&amp;quot;, monospace; font-size: 14px; text-align: left; background-color: rgb(233, 238, 246);&quot;&gt;payment_id&lt;/span&gt;" style="ellipse;whiteSpace=wrap;html=1;align=center;" parent="1" vertex="1">
          <mxGeometry x="1050" y="1570" width="100" height="40" as="geometry" />
        </mxCell>
        <mxCell id="cChgybbp4XVxhi1M-lru-219" value="&lt;span style=&quot;color: rgb(68, 71, 70); font-family: &amp;quot;Google Sans Mono&amp;quot;, monospace; font-size: 14px; text-align: left; background-color: rgb(233, 238, 246);&quot;&gt;payment_aggregator_id&lt;/span&gt;" style="ellipse;whiteSpace=wrap;html=1;align=center;" parent="1" vertex="1">
          <mxGeometry x="1225" y="1300" width="100" height="40" as="geometry" />
        </mxCell>
        <mxCell id="cChgybbp4XVxhi1M-lru-220" value="&lt;span style=&quot;color: rgb(68, 71, 70); font-family: &amp;quot;Google Sans Mono&amp;quot;, monospace; font-size: 14px; text-align: left; background-color: rgb(233, 238, 246);&quot;&gt;payment_aggregator_name&lt;/span&gt;" style="ellipse;whiteSpace=wrap;html=1;align=center;" parent="1" vertex="1">
          <mxGeometry x="1500" y="1239" width="100" height="40" as="geometry" />
        </mxCell>
        <mxCell id="cChgybbp4XVxhi1M-lru-221" value="&lt;span style=&quot;color: rgb(68, 71, 70); font-family: &amp;quot;Google Sans Mono&amp;quot;, monospace; font-size: 14px; text-align: left; background-color: rgb(233, 238, 246);&quot;&gt;payment_aggregator_address&lt;/span&gt;" style="ellipse;whiteSpace=wrap;html=1;align=center;" parent="1" vertex="1">
          <mxGeometry x="1225" y="1150" width="100" height="40" as="geometry" />
        </mxCell>
        <mxCell id="cChgybbp4XVxhi1M-lru-222" value="&lt;span style=&quot;color: rgb(68, 71, 70); font-family: &amp;quot;Google Sans Mono&amp;quot;, monospace; font-size: 14px; text-align: left; background-color: rgb(233, 238, 246);&quot;&gt;payment_aggregator_phone&lt;/span&gt;" style="ellipse;whiteSpace=wrap;html=1;align=center;" parent="1" vertex="1">
          <mxGeometry x="987" y="1244" width="100" height="40" as="geometry" />
        </mxCell>
        <mxCell id="cChgybbp4XVxhi1M-lru-224" style="edgeStyle=orthogonalEdgeStyle;rounded=0;orthogonalLoop=1;jettySize=auto;html=1;entryX=-0.002;entryY=0.275;entryDx=0;entryDy=0;entryPerimeter=0;" parent="1" source="cChgybbp4XVxhi1M-lru-143" target="cChgybbp4XVxhi1M-lru-220" edge="1">
          <mxGeometry relative="1" as="geometry" />
        </mxCell>
        <mxCell id="lZ0K4Ytk-Pg2eUkFx5_9-2" value="" style="edgeStyle=orthogonalEdgeStyle;rounded=0;orthogonalLoop=1;jettySize=auto;html=1;" edge="1" parent="1" source="lZ0K4Ytk-Pg2eUkFx5_9-1" target="cChgybbp4XVxhi1M-lru-5">
          <mxGeometry relative="1" as="geometry" />
        </mxCell>
        <mxCell id="lZ0K4Ytk-Pg2eUkFx5_9-1" value="&lt;b&gt;Dynamo DB&lt;/b&gt;&lt;div&gt;&lt;br&gt;&lt;/div&gt;" style="outlineConnect=0;dashed=0;verticalLabelPosition=bottom;verticalAlign=top;align=center;html=1;shape=mxgraph.aws3.dynamo_db;fillColor=#2E73B8;gradientColor=none;" vertex="1" parent="1">
          <mxGeometry x="780" y="18.5" width="72" height="81" as="geometry" />
        </mxCell>
      </root>
    </mxGraphModel>
  </diagram>
</mxfile>
